# xmcd CD database file
#
# Track frame offsets:
#	150
#	15890
#	27751
#	42366
#	65533
#	77882
#	89286
#	102560
#	104833
#	117844
#	134138
#	147167
#	159895
#	177328
#	188333
#	198140
#	212006
#	232244
#	247038
#	262680
#	276275
#	294577
#	318434
#	338298
#
# Disc length: 4718 seconds
#
# Revision: 0
# Processed by: cddbd v1.5.2PL0 Copyright (c) Steve Scherf et al.
# Submitted via: CDex 1.51
#
DISCID=53126c18
DTITLE=Gerry Mulligan, Chat Baker Quartet - Complete Recordings
DYEAR=1953
DGENRE=Jazz
TTITLE0=Makin' whoopee
TTITLE1=Motel
TTITLE2=My old flame
TTITLE3=All the things you are
TTITLE4=Love me or leave me
TTITLE5=Jeru
TTITLE6=Swing house
TTITLE7=Utter chaos
TTITLE8=I may be wrong
TTITLE9=I'm beginning to see the light
TTITLE10=The nearness of you
TTITLE11=Tea for two
TTITLE12=Darn that dream
TTITLE13=Varsity drag
TTITLE14=Speak low
TTITLE15=Half Nelson
TTITLE16=Lady bird
TTITLE17=Love me or leave me
TTITLE18=Swing house
TTITLE19=Five brothers
TTITLE20=I can't get started
TTITLE21=My funny valentine
TTITLE22=Ide's side
TTITLE23=Fun house
EXTD=YEAR: 1953
EXTT0=
EXTT1=
EXTT2=
EXTT3=
EXTT4=
EXTT5=
EXTT6=
EXTT7=
EXTT8=
EXTT9=
EXTT10=
EXTT11=
EXTT12=
EXTT13=
EXTT14=
EXTT15=
EXTT16=
EXTT17=
EXTT18=
EXTT19=
EXTT20=
EXTT21=
EXTT22=
EXTT23=
PLAYORDER=
